<svg width="210" height="110" viewBox="0 0 210 110" xmlns="http://www.w3.org/2000/svg" font-family="'Segoe UI', system-ui, sans-serif">
  <rect x="1" y="1" width="208" height="108" rx="12" fill="#13161c" stroke="#222831"/>
  <rect x="1" y="1" width="208" height="4" rx="2" fill="#A77B5A"/>
  <g transform="translate(20,20)">
      <path d="M5 16 c-3 0 -4 -2.5 -4 -4.5 c0 -2 1.5 -3.5 3.5 -3.5 c0 -3 2.5 -4.5 4.5 -4.5 c1.5 0 2.8 0.8 3.5 2 c0.7 -1.2 2 -2 3.5 -2 c2 0 4.5 1.5 4.5 4.5 c2 0 3.5 1.5 3.5 3.5 c0 2 -1 4.5 -4 4.5 z" fill="#a77b5a"/>
      <rect x="5" y="16" width="14" height="6" rx="1" fill="#5b4638"/></g>
  <text x="60" y="36" fill="#8b93a7" font-size="12" font-weight="600" letter-spacing="0.3">CodeChef</text>
  <text x="20" y="72" fill="#A77B5A" font-size="21" font-weight="700">3 ★</text>
  <text x="20" y="94" fill="#6b7280" font-size="12">Rating 1600+</text>
</svg>
