<svg width="270" height="80" viewBox="0 0 270 80" xmlns="http://www.w3.org/2000/svg" font-family="'Segoe UI', system-ui, sans-serif">
  <rect x="1" y="1" width="268" height="78" rx="12" fill="#13161c" stroke="#222831"/>
  <rect x="1" y="1" width="268" height="4" rx="2" fill="#f59e0b"/>
  <circle cx="30" cy="44" r="16" fill="#f59e0b" fill-opacity="0.15"/>
  <path d="M22 36 l16 0 l0 4 l3 0 l0 2 c0 4 -3 5.5 -5.2 5.8 c-0.9 2.2 -2.6 3.4 -4.3 3.7 l0 2.5 l3.5 0 l0 2.8 l-10 0 l0 -2.8 l3.5 0 l0 -2.5 c-1.7 -0.3 -3.4 -1.5 -4.3 -3.7 c-2.2 -0.3 -5.2 -1.8 -5.2 -5.8 l0 -2 l3 0 z" fill="#fbbf24"/>
  <text x="56" y="36" fill="#8b93a7" font-size="11" font-weight="600" letter-spacing="0.5">COMMITTERS RANK</text>
  <text x="56" y="58" fill="#f0f3f9" font-size="20" font-weight="700">Mauritania #27</text>
</svg>
