<svg width="900" height="64" viewBox="0 0 900 64" xmlns="http://www.w3.org/2000/svg" font-family="'Segoe UI', system-ui, sans-serif">
  <defs>
    <linearGradient id="hbg" x1="0" y1="0" x2="1" y2="0"><stop offset="0" stop-color="#10131a"/><stop offset="1" stop-color="#0a0c10"/></linearGradient>
    <linearGradient id="hacc" x1="0" y1="0" x2="0" y2="1"><stop offset="0" stop-color="#8b5cf6"/><stop offset="1" stop-color="#3b82f6"/></linearGradient>
  </defs>
  <rect width="900" height="64" rx="14" fill="url(#hbg)"/>
  <rect x="0.5" y="0.5" width="899" height="63" rx="14" fill="none" stroke="#ffffff" stroke-opacity="0.07"/>
  <rect x="0" y="0" width="5" height="64" rx="2.5" fill="url(#hacc)"/>
  <g transform="translate(28, 19)"><path d="M6 3 h13 v4 c0 4 -3 7 -6.5 7 S6 11 6 7 z M3 4 h3 v3 c0 1.5 -1.5 2 -3 2 z M19 4 h3 v2 c0 2 -1.5 2.5 -3 2.5 z M12.5 14 v4 M8 22 h9 l-1 -3 h-7 z" fill="none" stroke="#fbbf24" stroke-width="1.8" stroke-linejoin="round"/></g>
  <text x="72" y="40" fill="#f0f3f9" font-size="21" font-weight="700" letter-spacing="-0.2">Competitive Programming</text>
</svg>
