<svg width="900" height="64" viewBox="0 0 900 64" xmlns="http://www.w3.org/2000/svg" font-family="'Segoe UI', system-ui, sans-serif">
  <defs>
    <linearGradient id="hbg" x1="0" y1="0" x2="1" y2="0"><stop offset="0" stop-color="#10131a"/><stop offset="1" stop-color="#0a0c10"/></linearGradient>
    <linearGradient id="hacc" x1="0" y1="0" x2="0" y2="1"><stop offset="0" stop-color="#8b5cf6"/><stop offset="1" stop-color="#3b82f6"/></linearGradient>
  </defs>
  <rect width="900" height="64" rx="14" fill="url(#hbg)"/>
  <rect x="0.5" y="0.5" width="899" height="63" rx="14" fill="none" stroke="#ffffff" stroke-opacity="0.07"/>
  <rect x="0" y="0" width="5" height="64" rx="2.5" fill="url(#hacc)"/>
  <g transform="translate(28, 19)"><path d="M3 7 a2 2 0 0 1 2 -2 h6 l2.5 2.5 h7.5 a2 2 0 0 1 2 2 v11 a2 2 0 0 1 -2 2 h-23 a2 2 0 0 1 -2 -2 z" fill="none" stroke="#a78bfa" stroke-width="2" stroke-linejoin="round"/></g>
  <text x="72" y="40" fill="#f0f3f9" font-size="21" font-weight="700" letter-spacing="-0.2">Latest Projects</text>
</svg>
