<svg width="860" height="280" viewBox="0 0 860 280" xmlns="http://www.w3.org/2000/svg">
  <defs>
    <linearGradient id="bg4" x1="0%" y1="0%" x2="100%" y2="100%">
      <stop offset="0%" style="stop-color:#0d1117"/>
      <stop offset="100%" style="stop-color:#161b22"/>
    </linearGradient>
    <linearGradient id="accentLine" x1="0%" y1="0%" x2="100%" y2="0%">
      <stop offset="0%" style="stop-color:#a371f7"/>
      <stop offset="100%" style="stop-color:#58a6ff;stop-opacity:0"/>
    </linearGradient>
  </defs>
  <rect width="860" height="280" rx="12" fill="url(#bg4)" stroke="#30363d" stroke-width="1"/>

  <!-- Title bar -->
  <rect x="0" y="0" width="860" height="48" rx="12" fill="#161b22"/>
  <rect x="0" y="36" width="860" height="12" fill="#161b22"/>
  <circle cx="22" cy="24" r="6" fill="#ff5f57"/>
  <circle cx="42" cy="24" r="6" fill="#febc2e"/>
  <circle cx="62" cy="24" r="6" fill="#28c840"/>
  <text x="430" y="29" text-anchor="middle" fill="#e6edf3" font-family="JetBrains Mono,monospace" font-size="13" font-weight="600">🧠 About Me</text>

  <!-- Left accent bar -->
  <rect x="20" y="60" width="3" height="200" rx="2" fill="url(#accentLine)"/>

  <!-- Lines of about -->
  <!-- Line 1 -->
  <rect x="34" y="62" width="20" height="20" rx="4" fill="#1a1040"/>
  <text x="44" y="77" text-anchor="middle" font-size="12">🎓</text>
  <text x="62" y="77" fill="#c9d1d9" font-family="Segoe UI,sans-serif" font-size="13">Master student in </text>
  <text x="196" y="77" fill="#a371f7" font-family="Segoe UI,sans-serif" font-size="13" font-weight="600">Artificial Intelligence</text>
  <text x="366" y="77" fill="#c9d1d9" font-family="Segoe UI,sans-serif" font-size="13"> — LIU University · Final year</text>

  <!-- Line 2 -->
  <rect x="34" y="90" width="20" height="20" rx="4" fill="#1a1040"/>
  <text x="44" y="105" text-anchor="middle" font-size="12">🤖</text>
  <text x="62" y="105" fill="#c9d1d9" font-family="Segoe UI,sans-serif" font-size="13">Focused on </text>
  <text x="146" y="105" fill="#58a6ff" font-family="Segoe UI,sans-serif" font-size="13" font-weight="600">Machine Learning · Deep Learning · NLP</text>

  <!-- Line 3 -->
  <rect x="34" y="118" width="20" height="20" rx="4" fill="#1a1040"/>
  <text x="44" y="133" text-anchor="middle" font-size="12">🛠️</text>
  <text x="62" y="133" fill="#c9d1d9" font-family="Segoe UI,sans-serif" font-size="13">Full-Stack dev — </text>
  <text x="178" y="133" fill="#3fb950" font-family="Segoe UI,sans-serif" font-size="13" font-weight="600">Spring Boot · React · Flutter</text>

  <!-- Line 4 -->
  <rect x="34" y="146" width="20" height="20" rx="4" fill="#1a1040"/>
  <text x="44" y="161" text-anchor="middle" font-size="12">🏆</text>
  <text x="62" y="161" fill="#c9d1d9" font-family="Segoe UI,sans-serif" font-size="13">Competitive programmer — Codeforces </text>
  <text x="326" y="161" fill="#d29922" font-family="Segoe UI,sans-serif" font-size="13" font-weight="600">Expert</text>
  <text x="372" y="161" fill="#c9d1d9" font-family="Segoe UI,sans-serif" font-size="13"> · 500+ problems solved</text>

  <!-- Line 5 -->
  <rect x="34" y="174" width="20" height="20" rx="4" fill="#1a1040"/>
  <text x="44" y="189" text-anchor="middle" font-size="12">🔭</text>
  <text x="62" y="189" fill="#c9d1d9" font-family="Segoe UI,sans-serif" font-size="13">Currently building: </text>
  <text x="196" y="189" fill="#a371f7" font-family="Segoe UI,sans-serif" font-size="13" font-weight="600">[Ton projet IA — RAG / CV / NLP]</text>

  <!-- Line 6 -->
  <rect x="34" y="202" width="20" height="20" rx="4" fill="#1a1040"/>
  <text x="44" y="217" text-anchor="middle" font-size="12">💼</text>
  <text x="62" y="217" fill="#c9d1d9" font-family="Segoe UI,sans-serif" font-size="13">Open to: </text>
  <text x="116" y="217" fill="#3fb950" font-family="Segoe UI,sans-serif" font-size="13" font-weight="600">AI Research Internship · ML Engineer · Remote</text>

  <!-- Quote box -->
  <rect x="34" y="232" width="806" height="36" rx="6" fill="#161b22" stroke="#6e40c9" stroke-width="1"/>
  <rect x="34" y="232" width="4" height="36" rx="2" fill="#a371f7"/>
  <text x="48" y="255" fill="#8b949e" font-family="Segoe UI,sans-serif" font-size="12" font-style="italic">"I believe AI is the most powerful tool humanity has ever built — I want to be part of shaping how it's used responsibly."</text>
</svg>
