<svg width="900" height="444" viewBox="0 0 900 444" xmlns="http://www.w3.org/2000/svg" font-family="'Segoe UI', system-ui, sans-serif">
  <defs>
    <linearGradient id="cbg" x1="0" y1="0" x2="1" y2="1"><stop offset="0" stop-color="#0a0c10"/><stop offset="1" stop-color="#10131a"/></linearGradient>
    <linearGradient id="cacc" x1="0" y1="0" x2="0" y2="1"><stop offset="0" stop-color="#8b5cf6"/><stop offset="1" stop-color="#3b82f6"/></linearGradient>
  </defs>
  <rect width="900" height="444" rx="16" fill="url(#cbg)"/>
  <rect x="0.5" y="0.5" width="899" height="443" rx="16" fill="none" stroke="#ffffff" stroke-opacity="0.08"/>
  <g transform="translate(40, 40)">
    <rect x="0" y="-14" width="4" height="20" rx="2" fill="url(#cacc)"/>
    <text x="16" y="2" fill="#f0f3f9" font-size="16" font-weight="700">Certifications</text>
    <text x="158" y="2" fill="#4b5263" font-size="13">// continuous learning</text>
  </g>
  <g transform="translate(620, 28)" font-size="12">
    <circle cx="6" cy="8" r="4" fill="#34d399"/><text x="16" y="12" fill="#8b93a7">3 done</text>
    <circle cx="86" cy="8" r="4" fill="#a78bfa"/><text x="96" y="12" fill="#8b93a7">2 active</text>
    <circle cx="176" cy="8" r="4" fill="#6b7280"/><text x="186" y="12" fill="#8b93a7">2 planned</text>
  </g>
<g transform="translate(40, 74)"><rect width="11" height="11" rx="3" fill="#34d399"/><text x="22" y="10" fill="#34d399" font-size="12" font-weight="700" letter-spacing="0.8">COMPLETED</text></g><g transform="translate(40, 90)"><rect width="820" height="40" rx="10" fill="#13161c" stroke="#222831"/><rect x="0" y="0" width="3" height="40" rx="1.5" fill="#34d399"/><text x="20" y="25" fill="#e6eaf2" font-size="13.5" font-weight="600">Machine Learning Specialization</text><text x="420" y="25" fill="#8b93a7" font-size="12.5">Andrew Ng · Stanford</text><text x="660" y="25" fill="#60a5fa" font-size="12.5">Coursera</text><text x="800" y="25" fill="#6b7280" font-size="12.5" text-anchor="end">2026</text></g><g transform="translate(40, 136)"><rect width="820" height="40" rx="10" fill="#1c2128" stroke="#222831"/><rect x="0" y="0" width="3" height="40" rx="1.5" fill="#34d399"/><text x="20" y="25" fill="#e6eaf2" font-size="13.5" font-weight="600">Deep Learning Specialization</text><text x="420" y="25" fill="#8b93a7" font-size="12.5">Andrew Ng · deeplearning.ai</text><text x="660" y="25" fill="#60a5fa" font-size="12.5">Coursera</text><text x="800" y="25" fill="#6b7280" font-size="12.5" text-anchor="end">2026</text></g><g transform="translate(40, 182)"><rect width="820" height="40" rx="10" fill="#13161c" stroke="#222831"/><rect x="0" y="0" width="3" height="40" rx="1.5" fill="#34d399"/><text x="20" y="25" fill="#e6eaf2" font-size="13.5" font-weight="600">NLP Specialization</text><text x="420" y="25" fill="#8b93a7" font-size="12.5">deeplearning.ai</text><text x="660" y="25" fill="#60a5fa" font-size="12.5">Coursera</text><text x="800" y="25" fill="#6b7280" font-size="12.5" text-anchor="end">2026</text></g><g transform="translate(40, 244)"><rect width="11" height="11" rx="3" fill="#a78bfa"/><text x="22" y="10" fill="#a78bfa" font-size="12" font-weight="700" letter-spacing="0.8">IN PROGRESS</text></g><g transform="translate(40, 260)"><rect width="820" height="40" rx="10" fill="#13161c" stroke="#222831"/><rect x="0" y="0" width="3" height="40" rx="1.5" fill="#a78bfa"/><text x="20" y="25" fill="#e6eaf2" font-size="13.5" font-weight="600">Generative AI with LLMs</text><text x="420" y="25" fill="#8b93a7" font-size="12.5">DeepLearning.AI · AWS</text><text x="660" y="25" fill="#60a5fa" font-size="12.5">Coursera</text><text x="800" y="25" fill="#6b7280" font-size="12.5" text-anchor="end">2026</text></g><g transform="translate(40, 306)"><rect width="820" height="40" rx="10" fill="#1c2128" stroke="#222831"/><rect x="0" y="0" width="3" height="40" rx="1.5" fill="#a78bfa"/><text x="20" y="25" fill="#e6eaf2" font-size="13.5" font-weight="600">AWS Cloud Practitioner</text><text x="420" y="25" fill="#8b93a7" font-size="12.5">Amazon Web Services</text><text x="660" y="25" fill="#fbbf24" font-size="12.5">AWS</text><text x="800" y="25" fill="#6b7280" font-size="12.5" text-anchor="end">2026</text></g><g transform="translate(40, 368)"><rect width="11" height="11" rx="3" fill="#6b7280"/><text x="22" y="10" fill="#6b7280" font-size="12" font-weight="700" letter-spacing="0.8">PLANNED</text></g><g transform="translate(40, 384)"><rect width="404" height="36" rx="10" fill="#0f1217" stroke="#1c222b"/><text x="18" y="23" fill="#8b93a7" font-size="13" font-weight="500">Google Professional ML Engineer</text><text x="386" y="23" fill="#5a6270" font-size="12" text-anchor="end">GCP</text></g><g transform="translate(456, 384)"><rect width="404" height="36" rx="10" fill="#0f1217" stroke="#1c222b"/><text x="18" y="23" fill="#8b93a7" font-size="13" font-weight="500">Microsoft Azure AI Fundamentals</text><text x="386" y="23" fill="#5a6270" font-size="12" text-anchor="end">AZ-900</text></g></svg>
