<svg width="860" height="520" viewBox="0 0 860 520" xmlns="http://www.w3.org/2000/svg">
  <defs>
    <linearGradient id="bg2" x1="0%" y1="0%" x2="100%" y2="100%">
      <stop offset="0%" style="stop-color:#0d1117"/>
      <stop offset="100%" style="stop-color:#161b22"/>
    </linearGradient>
  </defs>

  <!-- Background -->
  <rect width="860" height="520" rx="12" fill="url(#bg2)" stroke="#30363d" stroke-width="1"/>

  <!-- Title bar -->
  <rect x="0" y="0" width="860" height="48" rx="12" fill="#161b22"/>
  <rect x="0" y="36" width="860" height="12" fill="#161b22"/>
  <circle cx="22" cy="24" r="6" fill="#ff5f57"/>
  <circle cx="42" cy="24" r="6" fill="#febc2e"/>
  <circle cx="62" cy="24" r="6" fill="#28c840"/>
  <text x="430" y="29" text-anchor="middle" fill="#e6edf3" font-family="JetBrains Mono,monospace" font-size="13" font-weight="600">🎓 Certifications</text>

  <!-- ── COMPLETED ── -->
  <rect x="20" y="60" width="140" height="26" rx="13" fill="#1c2617" stroke="#238636" stroke-width="1"/>
  <text x="90" y="78" text-anchor="middle" fill="#3fb950" font-family="Segoe UI,sans-serif" font-size="12" font-weight="600">✅  Completed</text>

  <!-- Table header -->
  <rect x="20" y="96" width="820" height="28" rx="6" fill="#21262d"/>
  <text x="220" y="115" text-anchor="middle" fill="#8b949e" font-family="Segoe UI,sans-serif" font-size="11" font-weight="600">CERTIFICATE</text>
  <text x="530" y="115" text-anchor="middle" fill="#8b949e" font-family="Segoe UI,sans-serif" font-size="11" font-weight="600">ISSUER</text>
  <text x="710" y="115" text-anchor="middle" fill="#8b949e" font-family="Segoe UI,sans-serif" font-size="11" font-weight="600">PLATFORM</text>
  <text x="810" y="115" text-anchor="middle" fill="#8b949e" font-family="Segoe UI,sans-serif" font-size="11" font-weight="600">YEAR</text>
  <line x1="420" y1="96" x2="420" y2="124" stroke="#30363d" stroke-width="1"/>
  <line x1="640" y1="96" x2="640" y2="124" stroke="#30363d" stroke-width="1"/>
  <line x1="760" y1="96" x2="760" y2="124" stroke="#30363d" stroke-width="1"/>

  <!-- Row 1 -->
  <rect x="20" y="124" width="820" height="34" rx="0" fill="#161b22"/>
  <rect x="20" y="124" width="4" height="34" fill="#3fb950"/>
  <text x="45" y="146" fill="#e6edf3" font-family="Segoe UI,sans-serif" font-size="12">🧠  Machine Learning Specialization</text>
  <text x="530" y="146" text-anchor="middle" fill="#c9d1d9" font-family="Segoe UI,sans-serif" font-size="12">Andrew Ng · Stanford</text>
  <text x="710" y="146" text-anchor="middle" fill="#58a6ff" font-family="Segoe UI,sans-serif" font-size="12">Coursera</text>
  <text x="810" y="146" text-anchor="middle" fill="#8b949e" font-family="Segoe UI,sans-serif" font-size="12">2024</text>
  <line x1="20" y1="158" x2="840" y2="158" stroke="#21262d" stroke-width="1"/>

  <!-- Row 2 -->
  <rect x="20" y="158" width="820" height="34" rx="0" fill="#1c2128"/>
  <rect x="20" y="158" width="4" height="34" fill="#3fb950"/>
  <text x="45" y="180" fill="#e6edf3" font-family="Segoe UI,sans-serif" font-size="12">🤖  Deep Learning Specialization</text>
  <text x="530" y="180" text-anchor="middle" fill="#c9d1d9" font-family="Segoe UI,sans-serif" font-size="12">Andrew Ng · deeplearning.ai</text>
  <text x="710" y="180" text-anchor="middle" fill="#58a6ff" font-family="Segoe UI,sans-serif" font-size="12">Coursera</text>
  <text x="810" y="180" text-anchor="middle" fill="#8b949e" font-family="Segoe UI,sans-serif" font-size="12">2024</text>
  <line x1="20" y1="192" x2="840" y2="192" stroke="#21262d" stroke-width="1"/>

  <!-- Row 3 -->
  <rect x="20" y="192" width="820" height="34" rx="0" fill="#161b22"/>
  <rect x="20" y="192" width="4" height="34" fill="#3fb950"/>
  <text x="45" y="214" fill="#e6edf3" font-family="Segoe UI,sans-serif" font-size="12">💬  Natural Language Processing Specialization</text>
  <text x="530" y="214" text-anchor="middle" fill="#c9d1d9" font-family="Segoe UI,sans-serif" font-size="12">deeplearning.ai</text>
  <text x="710" y="214" text-anchor="middle" fill="#58a6ff" font-family="Segoe UI,sans-serif" font-size="12">Coursera</text>
  <text x="810" y="214" text-anchor="middle" fill="#8b949e" font-family="Segoe UI,sans-serif" font-size="12">2024</text>

  <!-- ── IN PROGRESS ── -->
  <rect x="20" y="242" width="140" height="26" rx="13" fill="#1a1040" stroke="#6e40c9" stroke-width="1"/>
  <text x="90" y="260" text-anchor="middle" fill="#a371f7" font-family="Segoe UI,sans-serif" font-size="12" font-weight="600">🔄  In Progress</text>

  <!-- Table header -->
  <rect x="20" y="278" width="820" height="28" rx="6" fill="#21262d"/>
  <text x="220" y="297" text-anchor="middle" fill="#8b949e" font-family="Segoe UI,sans-serif" font-size="11" font-weight="600">CERTIFICATE</text>
  <text x="530" y="297" text-anchor="middle" fill="#8b949e" font-family="Segoe UI,sans-serif" font-size="11" font-weight="600">ISSUER</text>
  <text x="710" y="297" text-anchor="middle" fill="#8b949e" font-family="Segoe UI,sans-serif" font-size="11" font-weight="600">PLATFORM</text>
  <text x="810" y="297" text-anchor="middle" fill="#8b949e" font-family="Segoe UI,sans-serif" font-size="11" font-weight="600">ETA</text>
  <line x1="420" y1="278" x2="420" y2="306" stroke="#30363d" stroke-width="1"/>
  <line x1="640" y1="278" x2="640" y2="306" stroke="#30363d" stroke-width="1"/>
  <line x1="760" y1="278" x2="760" y2="306" stroke="#30363d" stroke-width="1"/>

  <!-- Row 1 -->
  <rect x="20" y="306" width="820" height="34" fill="#161b22"/>
  <rect x="20" y="306" width="4" height="34" fill="#a371f7"/>
  <text x="45" y="328" fill="#e6edf3" font-family="Segoe UI,sans-serif" font-size="12">⚡  Generative AI with LLMs</text>
  <text x="530" y="328" text-anchor="middle" fill="#c9d1d9" font-family="Segoe UI,sans-serif" font-size="12">DeepLearning.AI · AWS</text>
  <text x="710" y="328" text-anchor="middle" fill="#58a6ff" font-family="Segoe UI,sans-serif" font-size="12">Coursera</text>
  <text x="810" y="328" text-anchor="middle" fill="#8b949e" font-family="Segoe UI,sans-serif" font-size="12">2025</text>
  <line x1="20" y1="340" x2="840" y2="340" stroke="#21262d" stroke-width="1"/>

  <!-- Row 2 -->
  <rect x="20" y="340" width="820" height="34" fill="#1c2128"/>
  <rect x="20" y="340" width="4" height="34" fill="#a371f7"/>
  <text x="45" y="362" fill="#e6edf3" font-family="Segoe UI,sans-serif" font-size="12">☁️  AWS Cloud Practitioner</text>
  <text x="530" y="362" text-anchor="middle" fill="#c9d1d9" font-family="Segoe UI,sans-serif" font-size="12">Amazon Web Services</text>
  <text x="710" y="362" text-anchor="middle" fill="#ff9900" font-family="Segoe UI,sans-serif" font-size="12">AWS</text>
  <text x="810" y="362" text-anchor="middle" fill="#8b949e" font-family="Segoe UI,sans-serif" font-size="12">2025</text>

  <!-- ── PLANNED ── -->
  <rect x="20" y="392" width="110" height="26" rx="13" fill="#1c1c1c" stroke="#484f58" stroke-width="1"/>
  <text x="75" y="410" text-anchor="middle" fill="#8b949e" font-family="Segoe UI,sans-serif" font-size="12" font-weight="600">📅  Planned</text>

  <!-- Table header -->
  <rect x="20" y="428" width="820" height="28" rx="6" fill="#21262d"/>
  <text x="220" y="447" text-anchor="middle" fill="#8b949e" font-family="Segoe UI,sans-serif" font-size="11" font-weight="600">CERTIFICATE</text>
  <text x="530" y="447" text-anchor="middle" fill="#8b949e" font-family="Segoe UI,sans-serif" font-size="11" font-weight="600">ISSUER</text>
  <text x="710" y="447" text-anchor="middle" fill="#8b949e" font-family="Segoe UI,sans-serif" font-size="11" font-weight="600">PLATFORM</text>
  <line x1="420" y1="428" x2="420" y2="456" stroke="#30363d" stroke-width="1"/>
  <line x1="640" y1="428" x2="640" y2="456" stroke="#30363d" stroke-width="1"/>

  <!-- Row 1 -->
  <rect x="20" y="456" width="820" height="30" fill="#161b22"/>
  <rect x="20" y="456" width="4" height="30" fill="#484f58"/>
  <text x="45" y="476" fill="#8b949e" font-family="Segoe UI,sans-serif" font-size="12">🔬  Google Professional ML Engineer</text>
  <text x="530" y="476" text-anchor="middle" fill="#8b949e" font-family="Segoe UI,sans-serif" font-size="12">Google Cloud</text>
  <text x="710" y="476" text-anchor="middle" fill="#8b949e" font-family="Segoe UI,sans-serif" font-size="12">GCP</text>
  <line x1="20" y1="486" x2="840" y2="486" stroke="#21262d" stroke-width="1"/>

  <!-- Row 2 -->
  <rect x="20" y="486" width="820" height="30" rx="0" fill="#1c2128"/>
  <rect x="20" y="486" width="4" height="30" fill="#484f58"/>
  <text x="45" y="506" fill="#8b949e" font-family="Segoe UI,sans-serif" font-size="12">🪟  Microsoft Azure AI Fundamentals AI-900</text>
  <text x="530" y="506" text-anchor="middle" fill="#8b949e" font-family="Segoe UI,sans-serif" font-size="12">Microsoft</text>
  <text x="710" y="506" text-anchor="middle" fill="#8b949e" font-family="Segoe UI,sans-serif" font-size="12">Azure</text>
</svg>
