<svg width="900" height="456" viewBox="0 0 900 456" xmlns="http://www.w3.org/2000/svg" font-family="'Segoe UI', system-ui, sans-serif">
  <defs>
    <linearGradient id="ebg" x1="0" y1="0" x2="1" y2="1"><stop offset="0" stop-color="#0a0c10"/><stop offset="1" stop-color="#10131a"/></linearGradient>
    <linearGradient id="eacc" x1="0" y1="0" x2="0" y2="1"><stop offset="0" stop-color="#8b5cf6"/><stop offset="1" stop-color="#3b82f6"/></linearGradient>
    <linearGradient id="barg" x1="0" y1="0" x2="1" y2="0"><stop offset="0" stop-color="#8b5cf6"/><stop offset="1" stop-color="#6366f1"/></linearGradient>
  </defs>
  <rect width="900" height="456" rx="16" fill="url(#ebg)"/>
  <rect x="0.5" y="0.5" width="899" height="455" rx="16" fill="none" stroke="#ffffff" stroke-opacity="0.08"/>
  <text x="40" y="36" fill="#8b93a7" font-size="13">Daily hours logged across scientific &amp; practical fields — updated 2026-07-24.</text>
  <g transform="translate(40, 52)"><rect width="194" height="62" rx="12" fill="#13161c" stroke="#222831"/><text x="16" y="22" fill="#6b7280" font-size="10" font-weight="600" letter-spacing="0.8">TOTAL STUDIED</text><text x="16" y="46" fill="#f0f3f9" font-size="22" font-weight="700">258<tspan font-size="13" fill="#8b93a7" font-weight="500">h 41m</tspan></text></g>
  <g transform="translate(246, 52)"><rect width="194" height="62" rx="12" fill="#13161c" stroke="#222831"/><text x="16" y="22" fill="#6b7280" font-size="10" font-weight="600" letter-spacing="0.8">YEARLY GOAL</text><text x="16" y="46" fill="#f0f3f9" font-size="22" font-weight="700">1200<tspan font-size="13" fill="#8b93a7" font-weight="500">h · 22%</tspan></text></g>
  <g transform="translate(452, 52)"><rect width="194" height="62" rx="12" fill="#13161c" stroke="#222831"/><text x="16" y="22" fill="#6b7280" font-size="10" font-weight="600" letter-spacing="0.8">TOP SUBJECT</text><text x="16" y="44" fill="#f0f3f9" font-size="14" font-weight="700">Computer Science</text><text x="170" y="44" fill="#a78bfa" font-size="11" text-anchor="end">138h</text></g>
  <g transform="translate(658, 52)"><rect width="202" height="62" rx="12" fill="#13161c" stroke="#222831"/><text x="16" y="22" fill="#6b7280" font-size="10" font-weight="600" letter-spacing="0.8">FIELDS TRACKED</text><text x="16" y="46" fill="#f0f3f9" font-size="22" font-weight="700">9<tspan font-size="13" fill="#8b93a7" font-weight="500"> active areas</tspan></text></g>
  <text x="40" y="146" fill="#6b7280" font-size="11" font-weight="600" letter-spacing="1">HOURS BY FIELD</text>
  <line x1="158" y1="168" x2="860" y2="168" stroke="#ffffff" stroke-opacity="0.06"/>
  <text x="40" y="168" fill="#cfd6e4" font-size="13" font-weight="500">Computer Science - Technology - Programming</text>
  <text x="860" y="168" fill="#e6eaf2" font-size="12" font-weight="600" text-anchor="end">138h 31m</text>
  <rect x="40" y="174" width="820" height="8" rx="4" fill="#161a21"/>
  <rect x="40" y="174" width="820" height="8" rx="4" fill="url(#barg)"/>
  <text x="40" y="202" fill="#cfd6e4" font-size="13" font-weight="500">Innovation - Design Thinking - Ideation</text>
  <text x="860" y="202" fill="#e6eaf2" font-size="12" font-weight="600" text-anchor="end">31h 00m</text>
  <rect x="40" y="208" width="820" height="8" rx="4" fill="#161a21"/>
  <rect x="40" y="208" width="184" height="8" rx="4" fill="url(#barg)"/>
  <text x="40" y="236" fill="#cfd6e4" font-size="13" font-weight="500">Economics - Marketing - Finance</text>
  <text x="860" y="236" fill="#e6eaf2" font-size="12" font-weight="600" text-anchor="end">25h 20m</text>
  <rect x="40" y="242" width="820" height="8" rx="4" fill="#161a21"/>
  <rect x="40" y="242" width="150" height="8" rx="4" fill="url(#barg)"/>
  <text x="40" y="270" fill="#cfd6e4" font-size="13" font-weight="500">Statistics - Mathematics - Data Analysis</text>
  <text x="860" y="270" fill="#e6eaf2" font-size="12" font-weight="600" text-anchor="end">22h 00m</text>
  <rect x="40" y="276" width="820" height="8" rx="4" fill="#161a21"/>
  <rect x="40" y="276" width="130" height="8" rx="4" fill="url(#barg)"/>
  <text x="40" y="304" fill="#cfd6e4" font-size="13" font-weight="500">Languages</text>
  <text x="860" y="304" fill="#e6eaf2" font-size="12" font-weight="600" text-anchor="end">21h 20m</text>
  <rect x="40" y="310" width="820" height="8" rx="4" fill="#161a21"/>
  <rect x="40" y="310" width="126" height="8" rx="4" fill="url(#barg)"/>
  <line x1="40" y1="350" x2="860" y2="350" stroke="#ffffff" stroke-opacity="0.07"/>
  <g transform="translate(40, 368)">
    <circle cx="32" cy="32" r="32" fill="none" stroke="#161a21" stroke-width="8"/>
    <circle cx="32" cy="32" r="32" fill="none" stroke="#8b5cf6" stroke-width="8" stroke-linecap="round" stroke-dasharray="201" stroke-dashoffset="89" transform="rotate(-90 32 32)"/>
    <text x="32" y="38" text-anchor="middle" fill="#f0f3f9" font-size="16" font-weight="700">56%</text>
    <text x="82" y="28" fill="#e6eaf2" font-size="16" font-weight="600">Year Progress</text>
    <text x="82" y="50" fill="#8b93a7" font-size="13">204 days passed · 161 remaining</text>
  </g>
  <g transform="translate(470, 368)">
    <circle cx="32" cy="32" r="32" fill="none" stroke="#161a21" stroke-width="8"/>
    <circle cx="32" cy="32" r="32" fill="none" stroke="#3b82f6" stroke-width="8" stroke-linecap="round" stroke-dasharray="201" stroke-dashoffset="124" transform="rotate(-90 32 32)"/>
    <text x="32" y="38" text-anchor="middle" fill="#f0f3f9" font-size="16" font-weight="700">38%</text>
    <text x="82" y="28" fill="#e6eaf2" font-size="16" font-weight="600">Life Progress</text>
    <text x="82" y="50" fill="#8b93a7" font-size="13">24 years · 298 months — keep building</text>
  </g>
</svg>
