<svg width="900" height="482" viewBox="0 0 900 482" xmlns="http://www.w3.org/2000/svg" font-family="'Segoe UI', system-ui, sans-serif">
  <defs>
    <linearGradient id="ebg" x1="0" y1="0" x2="1" y2="1"><stop offset="0" stop-color="#0a0c10"/><stop offset="1" stop-color="#10131a"/></linearGradient>
    <linearGradient id="eacc" x1="0" y1="0" x2="0" y2="1"><stop offset="0" stop-color="#8b5cf6"/><stop offset="1" stop-color="#3b82f6"/></linearGradient>
    <linearGradient id="barg" x1="0" y1="0" x2="1" y2="0"><stop offset="0" stop-color="#8b5cf6"/><stop offset="1" stop-color="#6366f1"/></linearGradient>
  </defs>
  <rect width="900" height="482" rx="16" fill="url(#ebg)"/>
  <rect x="0.5" y="0.5" width="899" height="481" rx="16" fill="none" stroke="#ffffff" stroke-opacity="0.08"/>
  <g transform="translate(40, 40)">
    <rect x="0" y="-14" width="4" height="20" rx="2" fill="url(#eacc)"/>
    <text x="16" y="2" fill="#f0f3f9" font-size="16" font-weight="700">Self Education</text>
    <text x="166" y="2" fill="#4b5263" font-size="13">// auto-synced from Google Sheets</text>
  </g>
  <text x="56" y="62" fill="#8b93a7" font-size="13">Daily hours logged across scientific &amp; practical fields — updated 2026-05-26.</text>
  <g transform="translate(40, 78)"><rect width="194" height="62" rx="12" fill="#13161c" stroke="#222831"/><text x="16" y="22" fill="#6b7280" font-size="10" font-weight="600" letter-spacing="0.8">TOTAL STUDIED</text><text x="16" y="46" fill="#f0f3f9" font-size="22" font-weight="700">254<tspan font-size="13" fill="#8b93a7" font-weight="500">h 45m</tspan></text></g>
  <g transform="translate(246, 78)"><rect width="194" height="62" rx="12" fill="#13161c" stroke="#222831"/><text x="16" y="22" fill="#6b7280" font-size="10" font-weight="600" letter-spacing="0.8">YEARLY GOAL</text><text x="16" y="46" fill="#f0f3f9" font-size="22" font-weight="700">1200<tspan font-size="13" fill="#8b93a7" font-weight="500">h · 21%</tspan></text></g>
  <g transform="translate(452, 78)"><rect width="194" height="62" rx="12" fill="#13161c" stroke="#222831"/><text x="16" y="22" fill="#6b7280" font-size="10" font-weight="600" letter-spacing="0.8">TOP SUBJECT</text><text x="16" y="44" fill="#f0f3f9" font-size="14" font-weight="700">Computer Science</text><text x="170" y="44" fill="#a78bfa" font-size="11" text-anchor="end">135h</text></g>
  <g transform="translate(658, 78)"><rect width="202" height="62" rx="12" fill="#13161c" stroke="#222831"/><text x="16" y="22" fill="#6b7280" font-size="10" font-weight="600" letter-spacing="0.8">FIELDS TRACKED</text><text x="16" y="46" fill="#f0f3f9" font-size="22" font-weight="700">9<tspan font-size="13" fill="#8b93a7" font-weight="500"> active areas</tspan></text></g>
  <text x="40" y="172" fill="#6b7280" font-size="11" font-weight="600" letter-spacing="1">HOURS BY FIELD</text>
  <line x1="158" y1="168" x2="860" y2="168" stroke="#ffffff" stroke-opacity="0.06"/>
  <text x="40" y="194" fill="#cfd6e4" font-size="13" font-weight="500">Computer Science - Technology - Programming</text>
  <text x="860" y="194" fill="#e6eaf2" font-size="12" font-weight="600" text-anchor="end">135h 40m</text>
  <rect x="40" y="200" width="820" height="8" rx="4" fill="#161a21"/>
  <rect x="40" y="200" width="820" height="8" rx="4" fill="url(#barg)"/>
  <text x="40" y="228" fill="#cfd6e4" font-size="13" font-weight="500">Innovation - Design Thinking - Ideation</text>
  <text x="860" y="228" fill="#e6eaf2" font-size="12" font-weight="600" text-anchor="end">30h 40m</text>
  <rect x="40" y="234" width="820" height="8" rx="4" fill="#161a21"/>
  <rect x="40" y="234" width="185" height="8" rx="4" fill="url(#barg)"/>
  <text x="40" y="262" fill="#cfd6e4" font-size="13" font-weight="500">Economics - Marketing - Finance</text>
  <text x="860" y="262" fill="#e6eaf2" font-size="12" font-weight="600" text-anchor="end">25h 00m</text>
  <rect x="40" y="268" width="820" height="8" rx="4" fill="#161a21"/>
  <rect x="40" y="268" width="151" height="8" rx="4" fill="url(#barg)"/>
  <text x="40" y="296" fill="#cfd6e4" font-size="13" font-weight="500">Statistics - Mathematics - Data Analysis</text>
  <text x="860" y="296" fill="#e6eaf2" font-size="12" font-weight="600" text-anchor="end">22h 00m</text>
  <rect x="40" y="302" width="820" height="8" rx="4" fill="#161a21"/>
  <rect x="40" y="302" width="133" height="8" rx="4" fill="url(#barg)"/>
  <text x="40" y="330" fill="#cfd6e4" font-size="13" font-weight="500">Languages</text>
  <text x="860" y="330" fill="#e6eaf2" font-size="12" font-weight="600" text-anchor="end">21h 10m</text>
  <rect x="40" y="336" width="820" height="8" rx="4" fill="#161a21"/>
  <rect x="40" y="336" width="128" height="8" rx="4" fill="url(#barg)"/>
  <line x1="40" y1="376" x2="860" y2="376" stroke="#ffffff" stroke-opacity="0.07"/>
  <g transform="translate(40, 394)">
    <circle cx="32" cy="32" r="32" fill="none" stroke="#161a21" stroke-width="8"/>
    <circle cx="32" cy="32" r="32" fill="none" stroke="#8b5cf6" stroke-width="8" stroke-linecap="round" stroke-dasharray="201" stroke-dashoffset="121" transform="rotate(-90 32 32)"/>
    <text x="32" y="38" text-anchor="middle" fill="#f0f3f9" font-size="16" font-weight="700">40%</text>
    <text x="82" y="28" fill="#e6eaf2" font-size="16" font-weight="600">Year Progress</text>
    <text x="82" y="50" fill="#8b93a7" font-size="13">145 days passed · 220 remaining</text>
  </g>
  <g transform="translate(470, 394)">
    <circle cx="32" cy="32" r="32" fill="none" stroke="#161a21" stroke-width="8"/>
    <circle cx="32" cy="32" r="32" fill="none" stroke="#3b82f6" stroke-width="8" stroke-linecap="round" stroke-dasharray="201" stroke-dashoffset="124" transform="rotate(-90 32 32)"/>
    <text x="32" y="38" text-anchor="middle" fill="#f0f3f9" font-size="16" font-weight="700">38%</text>
    <text x="82" y="28" fill="#e6eaf2" font-size="16" font-weight="600">Life Progress</text>
    <text x="82" y="50" fill="#8b93a7" font-size="13">24 years · 296 months — keep building</text>
  </g>
</svg>
