<svg width="900" height="210" viewBox="0 0 900 210" xmlns="http://www.w3.org/2000/svg" font-family="'Segoe UI', system-ui, sans-serif">
  <defs>
    <linearGradient id="pbg" x1="0" y1="0" x2="1" y2="1"><stop offset="0" stop-color="#0a0c10"/><stop offset="1" stop-color="#10131a"/></linearGradient>
    <linearGradient id="pacc" x1="0" y1="0" x2="0" y2="1"><stop offset="0" stop-color="#8b5cf6"/><stop offset="1" stop-color="#3b82f6"/></linearGradient>
  </defs>
  <rect width="900" height="210" rx="16" fill="url(#pbg)"/>
  <rect x="0.5" y="0.5" width="899" height="209" rx="16" fill="none" stroke="#ffffff" stroke-opacity="0.08"/>
  <g transform="translate(40, 40)">
    <rect x="0" y="-14" width="4" height="20" rx="2" fill="url(#pacc)"/>
    <text x="16" y="2" fill="#f0f3f9" font-size="16" font-weight="700">Latest Projects</text>
    <text x="170" y="2" fill="#4b5263" font-size="13">// most recently updated</text>
  </g>
  <g transform="translate(40, 64)">
    <rect width="272" height="120" rx="12" fill="#13161c" stroke="#222831"/>
    <rect x="0" y="0" width="272" height="4" rx="2" fill="#3776ab"/>
    <path d="M16 24 a2 2 0 0 1 2 -2 h6 l2 2 h6 a2 2 0 0 1 2 2 v6 a2 2 0 0 1 -2 2 h-14 a2 2 0 0 1 -2 -2 z" fill="#3776ab" fill-opacity="0.6"/>
    <text x="42" y="32" fill="#e6eaf2" font-size="14" font-weight="700">sidi-maadh</text>
    <text x="20" y="56" fill="#8b93a7" font-size="12">Config files for my GitHub profile.</text>
    <circle cx="22" cy="98" r="5" fill="#3776ab"/>
    <text x="32" y="102" fill="#8b93a7" font-size="11">Python</text>
    <text x="252" y="102" fill="#fbbf24" font-size="11" text-anchor="end">★ 1</text>
  </g>
  <g transform="translate(324, 64)">
    <rect width="272" height="120" rx="12" fill="#13161c" stroke="#222831"/>
    <rect x="0" y="0" width="272" height="4" rx="2" fill="#da5b0b"/>
    <path d="M16 24 a2 2 0 0 1 2 -2 h6 l2 2 h6 a2 2 0 0 1 2 2 v6 a2 2 0 0 1 -2 2 h-14 a2 2 0 0 1 -2 -2 z" fill="#da5b0b" fill-opacity="0.6"/>
    <text x="42" y="32" fill="#e6eaf2" font-size="14" font-weight="700">MachineLearningSpecia…</text>
    <text x="20" y="56" fill="#8b93a7" font-size="12">No description provided.</text>
    <circle cx="22" cy="98" r="5" fill="#da5b0b"/>
    <text x="32" y="102" fill="#8b93a7" font-size="11">Jupyter Notebook</text>
    <text x="252" y="102" fill="#fbbf24" font-size="11" text-anchor="end">★ 0</text>
  </g>
  <g transform="translate(608, 64)">
    <rect width="272" height="120" rx="12" fill="#13161c" stroke="#222831"/>
    <rect x="0" y="0" width="272" height="4" rx="2" fill="#da5b0b"/>
    <path d="M16 24 a2 2 0 0 1 2 -2 h6 l2 2 h6 a2 2 0 0 1 2 2 v6 a2 2 0 0 1 -2 2 h-14 a2 2 0 0 1 -2 -2 z" fill="#da5b0b" fill-opacity="0.6"/>
    <text x="42" y="32" fill="#e6eaf2" font-size="14" font-weight="700">Intro_to_AI_CourseMat…</text>
    <text x="20" y="56" fill="#8b93a7" font-size="12">No description provided.</text>
    <circle cx="22" cy="98" r="5" fill="#da5b0b"/>
    <text x="32" y="102" fill="#8b93a7" font-size="11">Jupyter Notebook</text>
    <text x="252" y="102" fill="#fbbf24" font-size="11" text-anchor="end">★ 0</text>
  </g>
</svg>
