<svg width="900" height="78" viewBox="0 0 900 78" xmlns="http://www.w3.org/2000/svg" font-family="'Segoe UI', system-ui, sans-serif">
  <defs>
    <linearGradient id="sbg" x1="0" y1="0" x2="1" y2="1"><stop offset="0" stop-color="#0a0c10"/><stop offset="1" stop-color="#10131a"/></linearGradient>
  </defs>
  <rect width="900" height="78" rx="16" fill="url(#sbg)"/>
  <rect x="0.5" y="0.5" width="899" height="77" rx="16" fill="none" stroke="#ffffff" stroke-opacity="0.08"/>

  <!-- Email -->
  <g transform="translate(34, 21)">
    <rect width="150" height="36" rx="10" fill="#13161c" stroke="#222831"/>
    <rect x="18" y="12" width="16" height="12" rx="2.5" fill="none" stroke="#a78bfa" stroke-width="1.6"/>
    <path d="M18 14 l8 6 l8 -6" fill="none" stroke="#a78bfa" stroke-width="1.6" stroke-linecap="round" stroke-linejoin="round"/>
    <text x="46" y="23" fill="#cfd6e4" font-size="13" font-weight="600">Email</text>
  </g>

  <!-- LinkedIn -->
  <g transform="translate(196, 21)">
    <rect width="166" height="36" rx="10" fill="#13161c" stroke="#222831"/>
    <rect x="18" y="11" width="16" height="16" rx="3.5" fill="#a78bfa"/>
    <circle cx="22" cy="15.5" r="1.4" fill="#13161c"/>
    <rect x="20.8" y="18" width="2.4" height="6" fill="#13161c"/>
    <path d="M25 24 v-3 c0 -1.5 2 -1.5 2 0 v3 h2.2 v-3.4 c0 -2.6 -2.8 -2.6 -4.2 -1.1 v-0.5 h-2 v5 z" fill="#13161c"/>
    <text x="46" y="23" fill="#cfd6e4" font-size="13" font-weight="600">LinkedIn</text>
  </g>

  <!-- Twitter -->
  <g transform="translate(374, 21)">
    <rect width="152" height="36" rx="10" fill="#13161c" stroke="#222831"/>
    <path d="M18 12 l5.3 7 l-5.8 7 h2.1 l4.7 -5.5 l4.2 5.5 h4.5 l-5.8 -7.5 l5.4 -6.5 h-2.1 l-4.3 5 l-3.8 -5 z" fill="#a78bfa"/>
    <text x="42" y="23" fill="#cfd6e4" font-size="13" font-weight="600">Twitter</text>
  </g>

  <!-- YouTube -->
  <g transform="translate(538, 21)">
    <rect width="168" height="36" rx="10" fill="#13161c" stroke="#222831"/>
    <rect x="18" y="12" width="18" height="13" rx="3.5" fill="#a78bfa"/>
    <path d="M24.5 15 l5 3.5 l-5 3.5 z" fill="#13161c"/>
    <text x="44" y="23" fill="#cfd6e4" font-size="13" font-weight="600">YouTube</text>
  </g>

  <!-- Resume -->
  <g transform="translate(718, 21)">
    <rect width="148" height="36" rx="10" fill="#13161c" stroke="#222831"/>
    <path d="M20 11 h7 l4 4 v9 a1 1 0 0 1 -1 1 h-10 a1 1 0 0 1 -1 -1 v-12 a1 1 0 0 1 1 -1 z" fill="none" stroke="#a78bfa" stroke-width="1.5" stroke-linejoin="round"/>
    <path d="M27 11 v4 h4" fill="none" stroke="#a78bfa" stroke-width="1.5" stroke-linejoin="round"/>
    <text x="44" y="23" fill="#cfd6e4" font-size="13" font-weight="600">Resume</text>
  </g>
</svg>
