<svg width="900" height="284" viewBox="0 0 900 284" xmlns="http://www.w3.org/2000/svg" font-family="'Segoe UI', system-ui, sans-serif">
  <defs>
    <linearGradient id="sbg" x1="0" y1="0" x2="1" y2="1"><stop offset="0" stop-color="#0a0c10"/><stop offset="1" stop-color="#10131a"/></linearGradient>
    <linearGradient id="sacc" x1="0" y1="0" x2="0" y2="1"><stop offset="0" stop-color="#8b5cf6"/><stop offset="1" stop-color="#3b82f6"/></linearGradient>
  </defs>
  <rect width="900" height="284" rx="16" fill="url(#sbg)"/>
  <rect x="0.5" y="0.5" width="899" height="283" rx="16" fill="none" stroke="#ffffff" stroke-opacity="0.08"/>

<text x="40" y="40" fill="#a78bfa" font-size="11" font-weight="700" letter-spacing="1.5">AI / ML</text><line x1="107.0" y1="36" x2="860" y2="36" stroke="#ffffff" stroke-opacity="0.06"/><g transform="translate(40, 52)">
    <rect width="85" height="28" rx="8" fill="#16191f" stroke="#2a2f3a"/>
    <circle cx="15" cy="14" r="4" fill="#ee4c2c"/>
    <text x="26" y="18" fill="#cfd6e4" font-size="12" font-weight="500">PyTorch</text>
  </g><g transform="translate(135, 52)">
    <rect width="106" height="28" rx="8" fill="#16191f" stroke="#2a2f3a"/>
    <circle cx="15" cy="14" r="4" fill="#ff6f00"/>
    <text x="26" y="18" fill="#cfd6e4" font-size="12" font-weight="500">TensorFlow</text>
  </g><g transform="translate(251, 52)">
    <rect width="120" height="28" rx="8" fill="#16191f" stroke="#2a2f3a"/>
    <circle cx="15" cy="14" r="4" fill="#f7931e"/>
    <text x="26" y="18" fill="#cfd6e4" font-size="12" font-weight="500">scikit-learn</text>
  </g><g transform="translate(381, 52)">
    <rect width="120" height="28" rx="8" fill="#16191f" stroke="#2a2f3a"/>
    <circle cx="15" cy="14" r="4" fill="#ffd21e"/>
    <text x="26" y="18" fill="#cfd6e4" font-size="12" font-weight="500">Hugging Face</text>
  </g><g transform="translate(511, 52)">
    <rect width="99" height="28" rx="8" fill="#16191f" stroke="#2a2f3a"/>
    <circle cx="15" cy="14" r="4" fill="#00a67e"/>
    <text x="26" y="18" fill="#cfd6e4" font-size="12" font-weight="500">LangChain</text>
  </g><g transform="translate(620, 52)">
    <rect width="78" height="28" rx="8" fill="#16191f" stroke="#2a2f3a"/>
    <circle cx="15" cy="14" r="4" fill="#5c3ee8"/>
    <text x="26" y="18" fill="#cfd6e4" font-size="12" font-weight="500">OpenCV</text>
  </g><g transform="translate(708, 52)">
    <rect width="78" height="28" rx="8" fill="#16191f" stroke="#2a2f3a"/>
    <circle cx="15" cy="14" r="4" fill="#150458"/>
    <text x="26" y="18" fill="#cfd6e4" font-size="12" font-weight="500">Pandas</text>
  </g><g transform="translate(796, 52)">
    <rect width="71" height="28" rx="8" fill="#16191f" stroke="#2a2f3a"/>
    <circle cx="15" cy="14" r="4" fill="#013243"/>
    <text x="26" y="18" fill="#cfd6e4" font-size="12" font-weight="500">NumPy</text>
  </g><text x="40" y="108" fill="#60a5fa" font-size="11" font-weight="700" letter-spacing="1.5">LANGUAGES</text><line x1="121.0" y1="104" x2="860" y2="104" stroke="#ffffff" stroke-opacity="0.06"/><g transform="translate(40, 120)">
    <rect width="78" height="28" rx="8" fill="#16191f" stroke="#2a2f3a"/>
    <circle cx="15" cy="14" r="4" fill="#3776ab"/>
    <text x="26" y="18" fill="#cfd6e4" font-size="12" font-weight="500">Python</text>
  </g><g transform="translate(128, 120)">
    <rect width="57" height="28" rx="8" fill="#16191f" stroke="#2a2f3a"/>
    <circle cx="15" cy="14" r="4" fill="#00599c"/>
    <text x="26" y="18" fill="#cfd6e4" font-size="12" font-weight="500">C++</text>
  </g><g transform="translate(195, 120)">
    <rect width="64" height="28" rx="8" fill="#16191f" stroke="#2a2f3a"/>
    <circle cx="15" cy="14" r="4" fill="#ed8b00"/>
    <text x="26" y="18" fill="#cfd6e4" font-size="12" font-weight="500">Java</text>
  </g><g transform="translate(269, 120)">
    <rect width="106" height="28" rx="8" fill="#16191f" stroke="#2a2f3a"/>
    <circle cx="15" cy="14" r="4" fill="#f7df1e"/>
    <text x="26" y="18" fill="#cfd6e4" font-size="12" font-weight="500">JavaScript</text>
  </g><g transform="translate(385, 120)">
    <rect width="106" height="28" rx="8" fill="#16191f" stroke="#2a2f3a"/>
    <circle cx="15" cy="14" r="4" fill="#007acc"/>
    <text x="26" y="18" fill="#cfd6e4" font-size="12" font-weight="500">TypeScript</text>
  </g><g transform="translate(501, 120)">
    <rect width="64" height="28" rx="8" fill="#16191f" stroke="#2a2f3a"/>
    <circle cx="15" cy="14" r="4" fill="#02569b"/>
    <text x="26" y="18" fill="#cfd6e4" font-size="12" font-weight="500">Dart</text>
  </g><text x="40" y="176" fill="#34d399" font-size="11" font-weight="700" letter-spacing="1.5">FULL-STACK · MOBILE</text><line x1="191.0" y1="172" x2="860" y2="172" stroke="#ffffff" stroke-opacity="0.06"/><g transform="translate(40, 188)">
    <rect width="71" height="28" rx="8" fill="#16191f" stroke="#2a2f3a"/>
    <circle cx="15" cy="14" r="4" fill="#61dafb"/>
    <text x="26" y="18" fill="#cfd6e4" font-size="12" font-weight="500">React</text>
  </g><g transform="translate(121, 188)">
    <rect width="113" height="28" rx="8" fill="#16191f" stroke="#2a2f3a"/>
    <circle cx="15" cy="14" r="4" fill="#6db33f"/>
    <text x="26" y="18" fill="#cfd6e4" font-size="12" font-weight="500">Spring Boot</text>
  </g><g transform="translate(244, 188)">
    <rect width="78" height="28" rx="8" fill="#16191f" stroke="#2a2f3a"/>
    <circle cx="15" cy="14" r="4" fill="#092e20"/>
    <text x="26" y="18" fill="#cfd6e4" font-size="12" font-weight="500">Django</text>
  </g><g transform="translate(332, 188)">
    <rect width="85" height="28" rx="8" fill="#16191f" stroke="#2a2f3a"/>
    <circle cx="15" cy="14" r="4" fill="#02569b"/>
    <text x="26" y="18" fill="#cfd6e4" font-size="12" font-weight="500">Flutter</text>
  </g><g transform="translate(427, 188)">
    <rect width="92" height="28" rx="8" fill="#16191f" stroke="#2a2f3a"/>
    <circle cx="15" cy="14" r="4" fill="#38b2ac"/>
    <text x="26" y="18" fill="#cfd6e4" font-size="12" font-weight="500">Tailwind</text>
  </g><text x="40" y="244" fill="#fbbf24" font-size="11" font-weight="700" letter-spacing="1.5">DATA · DEVOPS · CLOUD</text><line x1="205.0" y1="240" x2="860" y2="240" stroke="#ffffff" stroke-opacity="0.06"/><g transform="translate(40, 256)">
    <rect width="106" height="28" rx="8" fill="#16191f" stroke="#2a2f3a"/>
    <circle cx="15" cy="14" r="4" fill="#316192"/>
    <text x="26" y="18" fill="#cfd6e4" font-size="12" font-weight="500">PostgreSQL</text>
  </g><g transform="translate(156, 256)">
    <rect width="71" height="28" rx="8" fill="#16191f" stroke="#2a2f3a"/>
    <circle cx="15" cy="14" r="4" fill="#005c84"/>
    <text x="26" y="18" fill="#cfd6e4" font-size="12" font-weight="500">MySQL</text>
  </g><g transform="translate(237, 256)">
    <rect width="92" height="28" rx="8" fill="#16191f" stroke="#2a2f3a"/>
    <circle cx="15" cy="14" r="4" fill="#ffca28"/>
    <text x="26" y="18" fill="#cfd6e4" font-size="12" font-weight="500">Firebase</text>
  </g><g transform="translate(339, 256)">
    <rect width="78" height="28" rx="8" fill="#16191f" stroke="#2a2f3a"/>
    <circle cx="15" cy="14" r="4" fill="#2ca5e0"/>
    <text x="26" y="18" fill="#cfd6e4" font-size="12" font-weight="500">Docker</text>
  </g><g transform="translate(427, 256)">
    <rect width="57" height="28" rx="8" fill="#16191f" stroke="#2a2f3a"/>
    <circle cx="15" cy="14" r="4" fill="#f05032"/>
    <text x="26" y="18" fill="#cfd6e4" font-size="12" font-weight="500">Git</text>
  </g><g transform="translate(494, 256)">
    <rect width="57" height="28" rx="8" fill="#16191f" stroke="#2a2f3a"/>
    <circle cx="15" cy="14" r="4" fill="#ff9900"/>
    <text x="26" y="18" fill="#cfd6e4" font-size="12" font-weight="500">AWS</text>
  </g></svg>
