<svg width="900" height="360" viewBox="0 0 900 360" xmlns="http://www.w3.org/2000/svg" font-family="'Segoe UI', system-ui, -apple-system, sans-serif">
  <defs>
    <linearGradient id="sbg" x1="0" y1="0" x2="1" y2="1">
      <stop offset="0" stop-color="#0a0c10"/>
      <stop offset="1" stop-color="#10131a"/>
    </linearGradient>
    <linearGradient id="sacc" x1="0" y1="0" x2="0" y2="1">
      <stop offset="0" stop-color="#8b5cf6"/>
      <stop offset="1" stop-color="#3b82f6"/>
    </linearGradient>
  </defs>

  <rect width="900" height="360" rx="16" fill="url(#sbg)"/>
  <rect x="0.5" y="0.5" width="899" height="359" rx="16" fill="none" stroke="#ffffff" stroke-opacity="0.08"/>

  <!-- Section label -->
  <g transform="translate(40, 40)">
    <rect x="0" y="-14" width="4" height="20" rx="2" fill="url(#sacc)"/>
    <text x="16" y="2" fill="#f0f3f9" font-size="16" font-weight="700">Tech Stack</text>
    <text x="124" y="2" fill="#4b5263" font-size="13">// tools I work with</text>
  </g>

  <!-- ===== AI / ML ===== -->
  <text x="40" y="84" fill="#a78bfa" font-size="11" font-weight="700" letter-spacing="1.5">AI / ML</text>
  <line x1="100" y1="80" x2="860" y2="80" stroke="#ffffff" stroke-opacity="0.06"/>

  <g transform="translate(40, 96)" font-size="12" font-weight="500">
    <g><rect width="86" height="28" rx="8" fill="#16191f" stroke="#2a2f3a"/><circle cx="15" cy="14" r="4" fill="#ee4c2c"/><text x="26" y="18" fill="#cfd6e4">PyTorch</text></g>
    <g transform="translate(96,0)"><rect width="98" height="28" rx="8" fill="#16191f" stroke="#2a2f3a"/><circle cx="15" cy="14" r="4" fill="#ff6f00"/><text x="26" y="18" fill="#cfd6e4">TensorFlow</text></g>
    <g transform="translate(204,0)"><rect width="100" height="28" rx="8" fill="#16191f" stroke="#2a2f3a"/><circle cx="15" cy="14" r="4" fill="#f7931e"/><text x="26" y="18" fill="#cfd6e4">scikit-learn</text></g>
    <g transform="translate(314,0)"><rect width="104" height="28" rx="8" fill="#16191f" stroke="#2a2f3a"/><circle cx="15" cy="14" r="4" fill="#ffd21e"/><text x="26" y="18" fill="#cfd6e4">Hugging Face</text></g>
    <g transform="translate(428,0)"><rect width="92" height="28" rx="8" fill="#16191f" stroke="#2a2f3a"/><circle cx="15" cy="14" r="4" fill="#00a67e"/><text x="26" y="18" fill="#cfd6e4">LangChain</text></g>
    <g transform="translate(530,0)"><rect width="78" height="28" rx="8" fill="#16191f" stroke="#2a2f3a"/><circle cx="15" cy="14" r="4" fill="#5c3ee8"/><text x="26" y="18" fill="#cfd6e4">OpenCV</text></g>
    <g transform="translate(618,0)"><rect width="68" height="28" rx="8" fill="#16191f" stroke="#2a2f3a"/><circle cx="15" cy="14" r="4" fill="#150458"/><text x="26" y="18" fill="#cfd6e4">Pandas</text></g>
    <g transform="translate(696,0)"><rect width="68" height="28" rx="8" fill="#16191f" stroke="#2a2f3a"/><circle cx="15" cy="14" r="4" fill="#013243"/><text x="26" y="18" fill="#cfd6e4">NumPy</text></g>
  </g>

  <!-- ===== Languages ===== -->
  <text x="40" y="166" fill="#60a5fa" font-size="11" font-weight="700" letter-spacing="1.5">LANGUAGES</text>
  <line x1="128" y1="162" x2="860" y2="162" stroke="#ffffff" stroke-opacity="0.06"/>

  <g transform="translate(40, 178)" font-size="12" font-weight="500">
    <g><rect width="74" height="28" rx="8" fill="#16191f" stroke="#2a2f3a"/><circle cx="15" cy="14" r="4" fill="#3776ab"/><text x="26" y="18" fill="#cfd6e4">Python</text></g>
    <g transform="translate(84,0)"><rect width="56" height="28" rx="8" fill="#16191f" stroke="#2a2f3a"/><circle cx="15" cy="14" r="4" fill="#00599c"/><text x="26" y="18" fill="#cfd6e4">C++</text></g>
    <g transform="translate(150,0)"><rect width="60" height="28" rx="8" fill="#16191f" stroke="#2a2f3a"/><circle cx="15" cy="14" r="4" fill="#ed8b00"/><text x="26" y="18" fill="#cfd6e4">Java</text></g>
    <g transform="translate(220,0)"><rect width="94" height="28" rx="8" fill="#16191f" stroke="#2a2f3a"/><circle cx="15" cy="14" r="4" fill="#f7df1e"/><text x="26" y="18" fill="#cfd6e4">JavaScript</text></g>
    <g transform="translate(324,0)"><rect width="94" height="28" rx="8" fill="#16191f" stroke="#2a2f3a"/><circle cx="15" cy="14" r="4" fill="#007acc"/><text x="26" y="18" fill="#cfd6e4">TypeScript</text></g>
    <g transform="translate(428,0)"><rect width="58" height="28" rx="8" fill="#16191f" stroke="#2a2f3a"/><circle cx="15" cy="14" r="4" fill="#02569b"/><text x="26" y="18" fill="#cfd6e4">Dart</text></g>
  </g>

  <!-- ===== Full-Stack ===== -->
  <text x="40" y="248" fill="#34d399" font-size="11" font-weight="700" letter-spacing="1.5">FULL-STACK · MOBILE</text>
  <line x1="186" y1="244" x2="860" y2="244" stroke="#ffffff" stroke-opacity="0.06"/>

  <g transform="translate(40, 260)" font-size="12" font-weight="500">
    <g><rect width="68" height="28" rx="8" fill="#16191f" stroke="#2a2f3a"/><circle cx="15" cy="14" r="4" fill="#61dafb"/><text x="26" y="18" fill="#cfd6e4">React</text></g>
    <g transform="translate(78,0)"><rect width="96" height="28" rx="8" fill="#16191f" stroke="#2a2f3a"/><circle cx="15" cy="14" r="4" fill="#6db33f"/><text x="26" y="18" fill="#cfd6e4">Spring Boot</text></g>
    <g transform="translate(184,0)"><rect width="72" height="28" rx="8" fill="#16191f" stroke="#2a2f3a"/><circle cx="15" cy="14" r="4" fill="#092e20"/><text x="26" y="18" fill="#cfd6e4">Django</text></g>
    <g transform="translate(266,0)"><rect width="70" height="28" rx="8" fill="#16191f" stroke="#2a2f3a"/><circle cx="15" cy="14" r="4" fill="#02569b"/><text x="26" y="18" fill="#cfd6e4">Flutter</text></g>
    <g transform="translate(346,0)"><rect width="78" height="28" rx="8" fill="#16191f" stroke="#2a2f3a"/><circle cx="15" cy="14" r="4" fill="#38b2ac"/><text x="26" y="18" fill="#cfd6e4">Tailwind</text></g>
  </g>

  <!-- ===== DevOps ===== -->
  <text x="40" y="312" fill="#fbbf24" font-size="11" font-weight="700" letter-spacing="1.5">DATA · DEVOPS · CLOUD</text>
  <line x1="186" y1="308" x2="860" y2="308" stroke="#ffffff" stroke-opacity="0.06"/>

  <g transform="translate(40, 324)" font-size="12" font-weight="500">
    <g><rect width="92" height="28" rx="8" fill="#16191f" stroke="#2a2f3a"/><circle cx="15" cy="14" r="4" fill="#316192"/><text x="26" y="18" fill="#cfd6e4">PostgreSQL</text></g>
    <g transform="translate(102,0)"><rect width="66" height="28" rx="8" fill="#16191f" stroke="#2a2f3a"/><circle cx="15" cy="14" r="4" fill="#005c84"/><text x="26" y="18" fill="#cfd6e4">MySQL</text></g>
    <g transform="translate(178,0)"><rect width="76" height="28" rx="8" fill="#16191f" stroke="#2a2f3a"/><circle cx="15" cy="14" r="4" fill="#ffca28"/><text x="26" y="18" fill="#cfd6e4">Firebase</text></g>
    <g transform="translate(264,0)"><rect width="70" height="28" rx="8" fill="#16191f" stroke="#2a2f3a"/><circle cx="15" cy="14" r="4" fill="#2ca5e0"/><text x="26" y="18" fill="#cfd6e4">Docker</text></g>
    <g transform="translate(344,0)"><rect width="56" height="28" rx="8" fill="#16191f" stroke="#2a2f3a"/><circle cx="15" cy="14" r="4" fill="#f05032"/><text x="26" y="18" fill="#cfd6e4">Git</text></g>
    <g transform="translate(410,0)"><rect width="58" height="28" rx="8" fill="#16191f" stroke="#2a2f3a"/><circle cx="15" cy="14" r="4" fill="#ff9900"/><text x="26" y="18" fill="#cfd6e4">AWS</text></g>
  </g>
</svg>
