<svg width="900" height="328" viewBox="0 0 900 328" xmlns="http://www.w3.org/2000/svg" font-family="'Segoe UI', system-ui, sans-serif">
  <defs>
    <linearGradient id="sbg" x1="0" y1="0" x2="1" y2="1"><stop offset="0" stop-color="#0a0c10"/><stop offset="1" stop-color="#10131a"/></linearGradient>
    <linearGradient id="sacc" x1="0" y1="0" x2="0" y2="1"><stop offset="0" stop-color="#8b5cf6"/><stop offset="1" stop-color="#3b82f6"/></linearGradient>
  </defs>
  <rect width="900" height="328" rx="16" fill="url(#sbg)"/>
  <rect x="0.5" y="0.5" width="899" height="327" rx="16" fill="none" stroke="#ffffff" stroke-opacity="0.08"/>
  <g transform="translate(40, 40)">
    <rect x="0" y="-14" width="4" height="20" rx="2" fill="url(#sacc)"/>
    <text x="16" y="2" fill="#f0f3f9" font-size="16" font-weight="700">Tech Stack</text>
    <text x="124" y="2" fill="#4b5263" font-size="13">// tools I work with</text>
  </g>
<text x="40" y="84" fill="#a78bfa" font-size="11" font-weight="700" letter-spacing="1.5">AI / ML</text><line x1="107.0" y1="80" x2="860" y2="80" stroke="#ffffff" stroke-opacity="0.06"/><g transform="translate(40, 96)">
    <rect width="85" height="28" rx="8" fill="#16191f" stroke="#2a2f3a"/>
    <circle cx="15" cy="14" r="4" fill="#ee4c2c"/>
    <text x="26" y="18" fill="#cfd6e4" font-size="12" font-weight="500">PyTorch</text>
  </g><g transform="translate(135, 96)">
    <rect width="106" height="28" rx="8" fill="#16191f" stroke="#2a2f3a"/>
    <circle cx="15" cy="14" r="4" fill="#ff6f00"/>
    <text x="26" y="18" fill="#cfd6e4" font-size="12" font-weight="500">TensorFlow</text>
  </g><g transform="translate(251, 96)">
    <rect width="120" height="28" rx="8" fill="#16191f" stroke="#2a2f3a"/>
    <circle cx="15" cy="14" r="4" fill="#f7931e"/>
    <text x="26" y="18" fill="#cfd6e4" font-size="12" font-weight="500">scikit-learn</text>
  </g><g transform="translate(381, 96)">
    <rect width="120" height="28" rx="8" fill="#16191f" stroke="#2a2f3a"/>
    <circle cx="15" cy="14" r="4" fill="#ffd21e"/>
    <text x="26" y="18" fill="#cfd6e4" font-size="12" font-weight="500">Hugging Face</text>
  </g><g transform="translate(511, 96)">
    <rect width="99" height="28" rx="8" fill="#16191f" stroke="#2a2f3a"/>
    <circle cx="15" cy="14" r="4" fill="#00a67e"/>
    <text x="26" y="18" fill="#cfd6e4" font-size="12" font-weight="500">LangChain</text>
  </g><g transform="translate(620, 96)">
    <rect width="78" height="28" rx="8" fill="#16191f" stroke="#2a2f3a"/>
    <circle cx="15" cy="14" r="4" fill="#5c3ee8"/>
    <text x="26" y="18" fill="#cfd6e4" font-size="12" font-weight="500">OpenCV</text>
  </g><g transform="translate(708, 96)">
    <rect width="78" height="28" rx="8" fill="#16191f" stroke="#2a2f3a"/>
    <circle cx="15" cy="14" r="4" fill="#150458"/>
    <text x="26" y="18" fill="#cfd6e4" font-size="12" font-weight="500">Pandas</text>
  </g><g transform="translate(796, 96)">
    <rect width="71" height="28" rx="8" fill="#16191f" stroke="#2a2f3a"/>
    <circle cx="15" cy="14" r="4" fill="#013243"/>
    <text x="26" y="18" fill="#cfd6e4" font-size="12" font-weight="500">NumPy</text>
  </g><text x="40" y="152" fill="#60a5fa" font-size="11" font-weight="700" letter-spacing="1.5">LANGUAGES</text><line x1="121.0" y1="148" x2="860" y2="148" stroke="#ffffff" stroke-opacity="0.06"/><g transform="translate(40, 164)">
    <rect width="78" height="28" rx="8" fill="#16191f" stroke="#2a2f3a"/>
    <circle cx="15" cy="14" r="4" fill="#3776ab"/>
    <text x="26" y="18" fill="#cfd6e4" font-size="12" font-weight="500">Python</text>
  </g><g transform="translate(128, 164)">
    <rect width="57" height="28" rx="8" fill="#16191f" stroke="#2a2f3a"/>
    <circle cx="15" cy="14" r="4" fill="#00599c"/>
    <text x="26" y="18" fill="#cfd6e4" font-size="12" font-weight="500">C++</text>
  </g><g transform="translate(195, 164)">
    <rect width="64" height="28" rx="8" fill="#16191f" stroke="#2a2f3a"/>
    <circle cx="15" cy="14" r="4" fill="#ed8b00"/>
    <text x="26" y="18" fill="#cfd6e4" font-size="12" font-weight="500">Java</text>
  </g><g transform="translate(269, 164)">
    <rect width="106" height="28" rx="8" fill="#16191f" stroke="#2a2f3a"/>
    <circle cx="15" cy="14" r="4" fill="#f7df1e"/>
    <text x="26" y="18" fill="#cfd6e4" font-size="12" font-weight="500">JavaScript</text>
  </g><g transform="translate(385, 164)">
    <rect width="106" height="28" rx="8" fill="#16191f" stroke="#2a2f3a"/>
    <circle cx="15" cy="14" r="4" fill="#007acc"/>
    <text x="26" y="18" fill="#cfd6e4" font-size="12" font-weight="500">TypeScript</text>
  </g><g transform="translate(501, 164)">
    <rect width="64" height="28" rx="8" fill="#16191f" stroke="#2a2f3a"/>
    <circle cx="15" cy="14" r="4" fill="#02569b"/>
    <text x="26" y="18" fill="#cfd6e4" font-size="12" font-weight="500">Dart</text>
  </g><text x="40" y="220" fill="#34d399" font-size="11" font-weight="700" letter-spacing="1.5">FULL-STACK · MOBILE</text><line x1="191.0" y1="216" x2="860" y2="216" stroke="#ffffff" stroke-opacity="0.06"/><g transform="translate(40, 232)">
    <rect width="71" height="28" rx="8" fill="#16191f" stroke="#2a2f3a"/>
    <circle cx="15" cy="14" r="4" fill="#61dafb"/>
    <text x="26" y="18" fill="#cfd6e4" font-size="12" font-weight="500">React</text>
  </g><g transform="translate(121, 232)">
    <rect width="113" height="28" rx="8" fill="#16191f" stroke="#2a2f3a"/>
    <circle cx="15" cy="14" r="4" fill="#6db33f"/>
    <text x="26" y="18" fill="#cfd6e4" font-size="12" font-weight="500">Spring Boot</text>
  </g><g transform="translate(244, 232)">
    <rect width="78" height="28" rx="8" fill="#16191f" stroke="#2a2f3a"/>
    <circle cx="15" cy="14" r="4" fill="#092e20"/>
    <text x="26" y="18" fill="#cfd6e4" font-size="12" font-weight="500">Django</text>
  </g><g transform="translate(332, 232)">
    <rect width="85" height="28" rx="8" fill="#16191f" stroke="#2a2f3a"/>
    <circle cx="15" cy="14" r="4" fill="#02569b"/>
    <text x="26" y="18" fill="#cfd6e4" font-size="12" font-weight="500">Flutter</text>
  </g><g transform="translate(427, 232)">
    <rect width="92" height="28" rx="8" fill="#16191f" stroke="#2a2f3a"/>
    <circle cx="15" cy="14" r="4" fill="#38b2ac"/>
    <text x="26" y="18" fill="#cfd6e4" font-size="12" font-weight="500">Tailwind</text>
  </g><text x="40" y="288" fill="#fbbf24" font-size="11" font-weight="700" letter-spacing="1.5">DATA · DEVOPS · CLOUD</text><line x1="205.0" y1="284" x2="860" y2="284" stroke="#ffffff" stroke-opacity="0.06"/><g transform="translate(40, 300)">
    <rect width="106" height="28" rx="8" fill="#16191f" stroke="#2a2f3a"/>
    <circle cx="15" cy="14" r="4" fill="#316192"/>
    <text x="26" y="18" fill="#cfd6e4" font-size="12" font-weight="500">PostgreSQL</text>
  </g><g transform="translate(156, 300)">
    <rect width="71" height="28" rx="8" fill="#16191f" stroke="#2a2f3a"/>
    <circle cx="15" cy="14" r="4" fill="#005c84"/>
    <text x="26" y="18" fill="#cfd6e4" font-size="12" font-weight="500">MySQL</text>
  </g><g transform="translate(237, 300)">
    <rect width="92" height="28" rx="8" fill="#16191f" stroke="#2a2f3a"/>
    <circle cx="15" cy="14" r="4" fill="#ffca28"/>
    <text x="26" y="18" fill="#cfd6e4" font-size="12" font-weight="500">Firebase</text>
  </g><g transform="translate(339, 300)">
    <rect width="78" height="28" rx="8" fill="#16191f" stroke="#2a2f3a"/>
    <circle cx="15" cy="14" r="4" fill="#2ca5e0"/>
    <text x="26" y="18" fill="#cfd6e4" font-size="12" font-weight="500">Docker</text>
  </g><g transform="translate(427, 300)">
    <rect width="57" height="28" rx="8" fill="#16191f" stroke="#2a2f3a"/>
    <circle cx="15" cy="14" r="4" fill="#f05032"/>
    <text x="26" y="18" fill="#cfd6e4" font-size="12" font-weight="500">Git</text>
  </g><g transform="translate(494, 300)">
    <rect width="57" height="28" rx="8" fill="#16191f" stroke="#2a2f3a"/>
    <circle cx="15" cy="14" r="4" fill="#ff9900"/>
    <text x="26" y="18" fill="#cfd6e4" font-size="12" font-weight="500">AWS</text>
  </g></svg>
