<svg width="900" height="260" viewBox="0 0 900 260" xmlns="http://www.w3.org/2000/svg" font-family="'Segoe UI', system-ui, sans-serif">
  <defs>
    <linearGradient id="ytbg" x1="0" y1="0" x2="1" y2="1"><stop offset="0" stop-color="#0a0c10"/><stop offset="1" stop-color="#10131a"/></linearGradient>
  </defs>
  <rect width="900" height="260" rx="16" fill="url(#ytbg)"/>
  <rect x="0.5" y="0.5" width="899" height="259" rx="16" fill="none" stroke="#ffffff" stroke-opacity="0.08"/>

  <a href="https://www.youtube.com/@SidiMaadh">
  <clipPath id="clip40"><rect x="40" y="20" width="270" height="152" rx="10"/></clipPath>
  <g clip-path="url(#clip40)"><rect x="40" y="20" width="270" height="152" rx="10" fill="#1c2128"/><rect x="40" y="20" width="270" height="152" fill="#000" fill-opacity="0.12"/></g>
  <circle cx="175" cy="96" r="22" fill="#000000" fill-opacity="0.55"/>
  <path d="M168 86 l14 10 l-14 10 z" fill="#ffffff"/>
  <text x="40" y="196" fill="#e6eaf2" font-size="13" font-weight="600">Visit my YouTube channel</text>
  <text x="40" y="214" fill="#e6eaf2" font-size="13" font-weight="600"></text>
  <text x="40" y="234" fill="#6b7280" font-size="11">@SidiMaadh</text>
  </a>
  <a href="https://www.youtube.com/@SidiMaadh">
  <clipPath id="clip320"><rect x="320" y="20" width="270" height="152" rx="10"/></clipPath>
  <g clip-path="url(#clip320)"><rect x="320" y="20" width="270" height="152" rx="10" fill="#1c2128"/><rect x="320" y="20" width="270" height="152" fill="#000" fill-opacity="0.12"/></g>
  <circle cx="455" cy="96" r="22" fill="#000000" fill-opacity="0.55"/>
  <path d="M448 86 l14 10 l-14 10 z" fill="#ffffff"/>
  <text x="320" y="196" fill="#e6eaf2" font-size="13" font-weight="600">Visit my YouTube channel</text>
  <text x="320" y="214" fill="#e6eaf2" font-size="13" font-weight="600"></text>
  <text x="320" y="234" fill="#6b7280" font-size="11">@SidiMaadh</text>
  </a>
  <a href="https://www.youtube.com/@SidiMaadh">
  <clipPath id="clip600"><rect x="600" y="20" width="270" height="152" rx="10"/></clipPath>
  <g clip-path="url(#clip600)"><rect x="600" y="20" width="270" height="152" rx="10" fill="#1c2128"/><rect x="600" y="20" width="270" height="152" fill="#000" fill-opacity="0.12"/></g>
  <circle cx="735" cy="96" r="22" fill="#000000" fill-opacity="0.55"/>
  <path d="M728 86 l14 10 l-14 10 z" fill="#ffffff"/>
  <text x="600" y="196" fill="#e6eaf2" font-size="13" font-weight="600">Visit my YouTube channel</text>
  <text x="600" y="214" fill="#e6eaf2" font-size="13" font-weight="600"></text>
  <text x="600" y="234" fill="#6b7280" font-size="11">@SidiMaadh</text>
  </a>
</svg>
